# Blender v2.79 (sub 0) OBJ File: 'stone.blend'
# www.blender.org
mtllib stone.mtl
o Sphere
v -0.181138 -0.108897 -2.470474
v 0.189701 0.475288 -2.213724
v 1.037817 -0.099689 -2.315497
v 0.931694 -0.646770 -2.365900
v 0.598929 0.703522 -1.778060
v 1.682740 -0.107150 -1.848042
v 0.329845 1.037082 -1.159361
v 1.915017 0.098221 -1.217316
v 2.067472 -0.634490 -1.172584
v 1.647164 -0.725440 -1.829639
v 1.918230 -0.961033 -0.417844
v 1.440223 -1.207439 -1.443863
v 1.725911 0.341366 -0.736495
v 1.887400 -0.053374 0.116113
v 2.152458 -0.308715 -0.778161
v 1.927672 -0.608684 0.095064
v 1.098429 -1.438029 -0.898791
v 0.664268 -1.480030 -0.119073
v 1.099802 -1.149133 0.419579
v 1.497158 0.400670 -0.119494
v 0.187833 0.854689 -0.293432
v 1.291082 -0.427323 0.806960
v 1.284756 -0.764062 0.689709
v 0.468617 0.700718 0.385874
v 0.820204 0.441746 0.616806
v 0.386889 0.114636 0.991939
v -0.238687 -0.657859 1.184496
v -0.100479 0.536276 0.678226
v -0.176670 -0.999094 0.993131
v -0.473707 -1.386326 0.048803
v -0.377061 0.131949 0.972666
v -0.788995 -1.167208 0.891311
v -0.322202 1.021735 -0.839980
v -1.213454 -0.893588 0.867168
v -1.093889 0.201427 0.483431
v -0.425506 -1.477984 -1.163698
v 0.297953 -1.547807 -0.496076
v -1.393991 -0.217226 0.621801
v -1.652145 -0.742152 0.231178
v -1.605012 -1.006886 -0.320793
v -1.150550 0.633404 -0.822788
v -1.135945 -1.210711 0.468013
v -1.708262 -0.067246 -0.999131
v -1.728111 -0.283637 -1.354668
v -1.379666 -0.611882 -1.782648
v -1.393700 -0.220778 -1.878201
v -1.501794 0.208529 -1.511371
v -0.635812 0.908319 -1.494844
v -0.622885 0.599066 -1.992316
v -1.035806 -1.210421 -1.319789
v -0.391758 -1.145395 -1.981475
v 0.429877 -1.497574 -1.348819
v -0.097787 1.072973 -1.397434
v -0.187566 -0.666707 -2.408741
v 0.599337 -1.037310 -2.207970
vn 0.1162 0.3369 -0.9344
vn 0.1253 0.0669 -0.9899
vn 0.3573 0.6464 -0.6742
vn 0.4493 0.6533 -0.6094
vn 0.4882 0.8391 -0.2400
vn 0.4891 0.8402 -0.2341
vn 0.4884 0.8393 -0.2388
vn 0.9069 0.1650 -0.3877
vn 0.8447 -0.0644 -0.5314
vn 0.7027 -0.6931 -0.1609
vn 0.8544 0.5140 0.0761
vn 0.8201 0.5664 0.0814
vn 0.9488 -0.3115 0.0528
vn 0.9616 0.0596 0.2680
vn 0.4127 -0.8925 0.1817
vn 0.6053 -0.6612 0.4431
vn 0.2889 0.9261 0.2425
vn 0.7488 0.0292 0.6622
vn 0.6893 -0.2497 0.6800
vn 0.3166 0.9449 0.0833
vn 0.4100 0.8505 0.3295
vn 0.4079 0.4005 0.8205
vn 0.2315 0.0547 0.9713
vn 0.1203 0.7467 0.6542
vn -0.0193 -0.9229 0.3845
vn -0.0069 0.5918 0.8061
vn -0.1356 0.9527 0.2720
vn 0.2018 -0.9268 0.3166
vn 0.0842 0.9722 0.2186
vn -0.3446 0.1864 0.9201
vn -0.0102 -0.4905 0.8714
vn -0.3476 0.9166 0.1972
vn -0.1580 -0.9851 0.0682
vn -0.8247 -0.0151 0.5653
vn -0.6518 -0.7040 0.2820
vn -0.3993 0.8652 0.3034
vn -0.3792 -0.9252 -0.0136
vn -0.9987 0.0088 0.0504
vn -0.8134 -0.5176 -0.2653
vn -0.8225 -0.1627 -0.5449
vn -0.8336 0.2223 -0.5058
vn -0.5564 0.6991 -0.4491
vn -0.4819 -0.6923 -0.5371
vn -0.0368 -0.9972 -0.0644
vn -0.4411 0.2968 -0.8470
vn -0.0417 0.7991 -0.5998
vn -0.1615 0.4812 -0.8616
vn -0.1030 -0.9199 -0.3784
vn 0.0400 -0.1104 -0.9931
vn 0.0422 -0.4052 -0.9133
vn -0.0123 -0.8804 -0.4741
vn 0.2755 0.8911 -0.3606
vn 0.2119 -0.8782 -0.4287
vn 0.2467 -0.9383 -0.2423
vn 0.5909 -0.0497 -0.8052
vn 0.4216 -0.6528 -0.6294
vn 0.1306 -0.9914 -0.0107
vn 0.5222 0.7354 -0.4318
vn 0.7087 -0.6006 -0.3702
vn 0.4893 0.8405 -0.2326
vn 0.9243 0.1715 -0.3408
vn 0.2613 -0.3821 0.8864
vn 0.5184 -0.8544 -0.0363
vn 0.4274 0.9012 0.0718
vn 0.9539 -0.2553 0.1578
vn 0.6935 0.6948 0.1903
vn 0.4159 -0.8854 0.2076
vn 0.6032 -0.6315 0.4872
vn 0.5420 0.7040 0.4590
vn 0.5417 0.4490 0.7106
vn -0.7785 0.5893 0.2158
vn 0.2536 -0.6342 0.7304
vn 0.1026 -0.8824 0.4591
vn 0.1180 0.6769 0.7265
vn -0.0186 0.2560 0.9665
vn -0.3569 0.6970 0.6219
vn -0.0476 -0.9740 0.2213
vn -0.2347 -0.2819 0.9303
vn -0.4347 0.5479 0.7148
vn -0.3853 0.2221 0.8957
vn -0.1823 0.8798 0.4390
vn -0.4945 -0.7248 0.4798
vn -0.1279 -0.9705 0.2045
vn -0.9301 0.3024 0.2083
vn -0.7620 -0.5709 0.3056
vn -0.3761 0.9264 0.0197
vn -0.2171 -0.9740 0.0650
vn -0.9853 -0.1708 -0.0022
vn -0.3933 -0.9187 -0.0369
vn -0.7844 0.6200 0.0176
vn -0.9147 0.3659 -0.1717
vn -0.7213 -0.6326 -0.2821
vn -0.4440 -0.1500 -0.8834
vn -0.6187 0.7694 -0.1591
vn -0.5738 0.4437 -0.6884
vn 0.0266 0.9944 0.1021
vn -0.2918 -0.8818 -0.3706
vn -0.4212 -0.4973 -0.7585
vn -0.1611 0.8363 -0.5241
vn -0.1051 -0.6369 -0.7638
vn 0.1325 0.8214 -0.5548
usemtl Material.001
s 1
f 1//1 2//1 3//1
f 1//2 3//2 4//2
f 2//3 5//3 3//3
f 3//4 5//4 6//4
f 5//5 7//6 8//7
f 6//8 8//8 9//8
f 6//9 9//9 10//9
f 9//10 11//10 12//10
f 13//11 14//11 8//11
f 8//12 14//12 15//12
f 15//13 11//13 9//13
f 14//14 16//14 15//14
f 17//15 11//15 18//15
f 11//16 16//16 19//16
f 20//17 7//17 21//17
f 14//18 22//18 16//18
f 16//19 22//19 23//19
f 21//20 24//20 20//20
f 24//21 25//21 20//21
f 25//22 26//22 22//22
f 26//23 27//23 22//23
f 25//24 24//24 28//24
f 18//25 29//25 30//25
f 26//26 28//26 31//26
f 24//27 21//27 28//27
f 29//28 32//28 30//28
f 21//29 7//29 33//29
f 27//30 31//30 34//30
f 27//31 32//31 29//31
f 28//32 21//32 35//32
f 30//33 36//33 37//33
f 38//34 39//34 34//34
f 39//35 40//35 34//35
f 33//36 41//36 35//36
f 42//37 40//37 36//37
f 43//38 44//38 39//38
f 44//39 45//39 40//39
f 44//40 46//40 45//40
f 47//41 46//41 44//41
f 48//42 49//42 47//42
f 50//43 45//43 51//43
f 37//44 36//44 52//44
f 49//45 1//45 46//45
f 49//46 53//46 2//46
f 49//47 2//47 1//47
f 51//48 52//48 36//48
f 54//49 1//49 4//49
f 55//50 54//50 4//50
f 51//51 55//51 52//51
f 5//52 53//52 7//52
f 55//53 12//53 52//53
f 52//54 12//54 17//54
f 10//55 4//55 3//55 6//55
f 12//56 55//56 4//56 10//56
f 37//57 52//57 17//57 18//57
f 6//58 5//58 8//58
f 10//59 9//59 12//59
f 8//7 7//6 13//60
f 9//61 8//61 15//61
f 27//62 29//62 23//62 22//62
f 12//63 11//63 17//63
f 13//64 7//64 20//64
f 11//65 15//65 16//65
f 13//66 20//66 14//66
f 18//67 11//67 19//67
f 19//68 16//68 23//68
f 20//69 25//69 14//69
f 14//70 25//70 22//70
f 43//71 38//71 35//71 41//71
f 19//72 23//72 29//72
f 18//73 19//73 29//73
f 25//74 28//74 26//74
f 26//75 31//75 27//75
f 31//76 28//76 35//76
f 18//77 30//77 37//77
f 27//78 34//78 32//78
f 31//79 35//79 38//79
f 31//80 38//80 34//80
f 21//81 33//81 35//81
f 32//82 34//82 42//82
f 30//83 32//83 42//83
f 38//84 43//84 39//84
f 42//85 34//85 40//85
f 48//86 41//86 33//86 53//86
f 30//87 42//87 36//87
f 39//88 44//88 40//88
f 36//89 40//89 50//89
f 41//90 47//90 43//90
f 43//91 47//91 44//91
f 40//92 45//92 50//92
f 1//93 54//93 45//93 46//93
f 41//94 48//94 47//94
f 47//95 49//95 46//95
f 33//96 7//96 53//96
f 36//97 50//97 51//97
f 51//98 45//98 54//98
f 48//99 53//99 49//99
f 51//100 54//100 55//100
f 2//101 53//101 5//101
